<?xml version="1.0" standalone="no"?>
<!DOCTYPE svg PUBLIC "-//W3C//DTD SVG 20010904//EN"
 "http://www.w3.org/TR/2001/REC-SVG-20010904/DTD/svg10.dtd">
<svg version="1.0" xmlns="http://www.w3.org/2000/svg"
 width="300.000000pt" height="192.000000pt" viewBox="0 0 300.000000 192.000000"
 preserveAspectRatio="xMidYMid meet">

<g transform="translate(0.000000,192.000000) scale(0.100000,-0.100000)"
fill="#000000" stroke="none">
<path d="M0 960 l0 -960 1500 0 1500 0 0 960 0 960 -1500 0 -1500 0 0 -960z
m1435 226 c51 -23 115 -85 115 -111 0 -24 -13 -17 -39 21 -61 88 -197 118
-291 62 -46 -27 -83 -69 -100 -113 -9 -25 -30 -35 -30 -15 0 6 9 27 19 48 60
115 206 164 326 108z m-568 -249 c69 -120 123 -220 121 -223 -3 -2 -127 -3
-276 -2 l-271 3 137 237 c121 210 139 236 150 220 7 -9 69 -115 139 -235z
m1159 118 c43 -74 81 -135 85 -135 4 0 42 61 85 136 42 74 80 131 84 127 20
-21 271 -465 266 -470 -7 -7 -865 -8 -872 -1 -4 5 265 478 271 478 2 0 38 -61
81 -135z m-436 -117 c-2 -82 -51 -159 -131 -203 -149 -81 -333 8 -363 178 -5
28 -4 37 7 37 9 0 16 -15 20 -41 23 -174 261 -241 382 -108 36 40 46 59 59
112 l6 27 -115 0 c-65 0 -115 4 -115 9 0 11 49 17 168 19 l82 2 0 -32z"/>
<path d="M598 937 l-117 -202 231 -3 c127 -1 233 0 236 2 5 5 -202 371 -222
393 -9 10 -39 -35 -128 -190z"/>
<path d="M1826 940 c-64 -111 -116 -204 -116 -206 0 -2 67 -4 149 -4 l149 0
41 71 c23 39 41 76 41 83 0 11 -124 232 -140 249 -4 5 -60 -82 -124 -193z"/>
<path d="M2200 1014 l-74 -128 41 -75 41 -76 151 -3 c83 -1 151 0 151 3 0 8
-219 387 -229 398 -5 4 -41 -49 -81 -119z"/>
<path d="M2075 798 c-16 -29 -31 -56 -33 -60 -2 -5 28 -8 67 -8 39 0 71 3 71
6 0 9 -64 114 -70 114 -3 0 -18 -24 -35 -52z"/>
</g>
</svg>
